HIERARCHY
ROOT Hips
{
    OFFSET 0.000000 0.000000 0.000000
    CHANNELS 6 Xposition Yposition Zposition Zrotation Xrotation Yrotation
    JOINT Spine
    {
        OFFSET -0.000000 7.305680 0.000000
        CHANNELS 3 Zrotation Xrotation Yrotation
        JOINT Spine1
        {
            OFFSET -0.000000 20.356600 0.000000
            CHANNELS 3 Zrotation Xrotation Yrotation
            JOINT Neck
            {
                OFFSET -0.000000 22.138500 0.000000
                CHANNELS 3 Zrotation Xrotation Yrotation
                JOINT Head
                {
                    OFFSET -0.000000 13.809501 1.781870
                    CHANNELS 3 Zrotation Xrotation Yrotation
                    End Site
                    {
                        OFFSET -0.000000 17.818779 0.000000
                    }
                }
            }
            JOINT LeftShoulder
            {
                OFFSET 3.599130 17.990000 0.023591
                CHANNELS 3 Zrotation Xrotation Yrotation
                JOINT LeftArm
                {
                    OFFSET 12.560999 0.000000 0.000000
                    CHANNELS 3 Zrotation Xrotation Yrotation
                    JOINT LeftForeArm
                    {
                        OFFSET 22.903299 0.000000 0.000000
                        CHANNELS 3 Zrotation Xrotation Yrotation
                        JOINT LeftHand
                        {
                            OFFSET 21.865299 0.000000 0.000000
                            CHANNELS 3 Zrotation Xrotation Yrotation
                            JOINT LeftHandThumb1
                            {
                                OFFSET 1.853710 -2.106480 2.949080
                                CHANNELS 3 Zrotation Xrotation Yrotation
                                JOINT LeftHandThumb2
                                {
                                    OFFSET 2.049150 0.000000 1.336400
                                    CHANNELS 3 Zrotation Xrotation Yrotation
                                    JOINT LeftHandThumb3
                                    {
                                        OFFSET 2.672810 0.000000 0.000000
                                        CHANNELS 3 Zrotation Xrotation Yrotation
                                        End Site
                                        {
                                            OFFSET 2.381310 0.000000 0.000000
                                        }
                                    }
                                }
                            }
                            JOINT LeftHandIndex1
                            {
                                OFFSET 7.583340 0.000000 2.949080
                                CHANNELS 3 Zrotation Xrotation Yrotation
                                JOINT LeftHandIndex2
                                {
                                    OFFSET 4.454680 0.000000 0.000000
                                    CHANNELS 3 Zrotation Xrotation Yrotation
                                    JOINT LeftHandIndex3
                                    {
                                        OFFSET 2.227340 0.000000 0.000000
                                        CHANNELS 3 Zrotation Xrotation Yrotation
                                        End Site
                                        {
                                            OFFSET 1.984424 0.000000 0.000000
                                        }
                                    }
                                }
                            }
                            JOINT LeftHandMiddle1
                            {
                                OFFSET 7.583340 0.000000 0.977409
                                CHANNELS 3 Zrotation Xrotation Yrotation
                                JOINT LeftHandMiddle2
                                {
                                    OFFSET 4.900150 0.000000 0.000000
                                    CHANNELS 3 Zrotation Xrotation Yrotation
                                    JOINT LeftHandMiddle3
                                    {
                                        OFFSET 2.672810 0.000000 0.000000
                                        CHANNELS 3 Zrotation Xrotation Yrotation
                                        End Site
                                        {
                                            OFFSET 2.381310 0.000000 0.000000
                                        }
                                    }
                                }
                            }
                            JOINT LeftHandRing1
                            {
                                OFFSET 7.162050 0.000000 -0.977409
                                CHANNELS 3 Zrotation Xrotation Yrotation
                                JOINT LeftHandRing2
                                {
                                    OFFSET 4.454680 0.000000 0.000000
                                    CHANNELS 3 Zrotation Xrotation Yrotation
                                    JOINT LeftHandRing3
                                    {
                                        OFFSET 2.227340 0.000000 0.000000
                                        CHANNELS 3 Zrotation Xrotation Yrotation
                                        End Site
                                        {
                                            OFFSET 1.984424 0.000000 0.000000
                                        }
                                    }
                                }
                            }
                            JOINT LeftHandPinky1
                            {
                                OFFSET 6.740750 0.000000 -2.949080
                                CHANNELS 3 Zrotation Xrotation Yrotation
                                JOINT LeftHandPinky2
                                {
                                    OFFSET 3.563750 0.000000 0.000000
                                    CHANNELS 3 Zrotation Xrotation Yrotation
                                    JOINT LeftHandPinky3
                                    {
                                        OFFSET 1.781870 0.000000 0.000000
                                        CHANNELS 3 Zrotation Xrotation Yrotation
                                        End Site
                                        {
                                            OFFSET 1.587538 0.000000 0.000000
                                        }
                                    }
                                }
                            }
                        }
                    }
                }
            }
            JOINT RightShoulder
            {
                OFFSET -3.506990 17.990000 0.023591
                CHANNELS 3 Zrotation Xrotation Yrotation
                JOINT RightArm
                {
                    OFFSET -12.560999 0.000000 0.000000
                    CHANNELS 3 Zrotation Xrotation Yrotation
                    JOINT RightForeArm
                    {
                        OFFSET -22.903299 0.000000 0.000000
                        CHANNELS 3 Zrotation Xrotation Yrotation
                        JOINT RightHand
                        {
                            OFFSET -21.865299 0.000000 0.000000
                            CHANNELS 3 Zrotation Xrotation Yrotation
                            JOINT RightHandThumb1
                            {
                                OFFSET -1.853710 -2.106480 2.949080
                                CHANNELS 3 Zrotation Xrotation Yrotation
                                JOINT RightHandThumb2
                                {
                                    OFFSET -2.049150 0.000000 1.336400
                                    CHANNELS 3 Zrotation Xrotation Yrotation
                                    JOINT RightHandThumb3
                                    {
                                        OFFSET -2.672810 0.000000 0.000000
                                        CHANNELS 3 Zrotation Xrotation Yrotation
                                        End Site
                                        {
                                            OFFSET -2.381310 0.000000 0.000000
                                        }
                                    }
                                }
                            }
                            JOINT RightHandIndex1
                            {
                                OFFSET -7.583340 0.000000 2.949080
                                CHANNELS 3 Zrotation Xrotation Yrotation
                                JOINT RightHandIndex2
                                {
                                    OFFSET -4.454680 0.000000 0.000000
                                    CHANNELS 3 Zrotation Xrotation Yrotation
                                    JOINT RightHandIndex3
                                    {
                                        OFFSET -2.227340 0.000000 0.000000
                                        CHANNELS 3 Zrotation Xrotation Yrotation
                                        End Site
                                        {
                                            OFFSET -1.984424 0.000000 0.000000
                                        }
                                    }
                                }
                            }
                            JOINT RightHandMiddle1
                            {
                                OFFSET -7.583340 0.000000 0.977409
                                CHANNELS 3 Zrotation Xrotation Yrotation
                                JOINT RightHandMiddle2
                                {
                                    OFFSET -4.900150 0.000000 0.000000
                                    CHANNELS 3 Zrotation Xrotation Yrotation
                                    JOINT RightHandMiddle3
                                    {
                                        OFFSET -2.672810 0.000000 0.000000
                                        CHANNELS 3 Zrotation Xrotation Yrotation
                                        End Site
                                        {
                                            OFFSET -2.381310 0.000000 0.000000
                                        }
                                    }
                                }
                            }
                            JOINT RightHandRing1
                            {
                                OFFSET -7.162050 0.000000 -0.977409
                                CHANNELS 3 Zrotation Xrotation Yrotation
                                JOINT RightHandRing2
                                {
                                    OFFSET -4.454680 0.000000 0.000000
                                    CHANNELS 3 Zrotation Xrotation Yrotation
                                    JOINT RightHandRing3
                                    {
                                        OFFSET -2.227340 0.000000 0.000000
                                        CHANNELS 3 Zrotation Xrotation Yrotation
                                        End Site
                                        {
                                            OFFSET -1.984424 0.000000 0.000000
                                        }
                                    }
                                }
                            }
                            JOINT RightHandPinky1
                            {
                                OFFSET -6.740750 0.000000 -2.949080
                                CHANNELS 3 Zrotation Xrotation Yrotation
                                JOINT RightHandPinky2
                                {
                                    OFFSET -3.563750 0.000000 0.000000
                                    CHANNELS 3 Zrotation Xrotation Yrotation
                                    JOINT RightHandPinky3
                                    {
                                        OFFSET -1.781870 0.000000 0.000000
                                        CHANNELS 3 Zrotation Xrotation Yrotation
                                        End Site
                                        {
                                            OFFSET -1.587538 0.000000 0.000000
                                        }
                                    }
                                }
                            }
                        }
                    }
                }
            }
        }
    }
    JOINT LeftUpLeg
    {
        OFFSET 8.909360 0.000000 0.000000
        CHANNELS 3 Zrotation Xrotation Yrotation
        JOINT LeftLeg
        {
            OFFSET -0.000000 -38.765602 0.000000
            CHANNELS 3 Zrotation Xrotation Yrotation
            JOINT LeftFoot
            {
                OFFSET -0.000000 -35.245003 0.000000
                CHANNELS 3 Zrotation Xrotation Yrotation
                JOINT LeftToeBase
                {
                    OFFSET -0.000000 -5.791090 13.364000
                    CHANNELS 3 Zrotation Xrotation Yrotation
                    End Site
                    {
                        OFFSET -0.000000 0.000000 3.563756
                    }
                }
            }
        }
    }
    JOINT RightUpLeg
    {
        OFFSET -8.909360 0.000000 0.000000
        CHANNELS 3 Zrotation Xrotation Yrotation
        JOINT RightLeg
        {
            OFFSET -0.000000 -38.765602 0.000000
            CHANNELS 3 Zrotation Xrotation Yrotation
            JOINT RightFoot
            {
                OFFSET -0.000000 -35.245003 0.000000
                CHANNELS 3 Zrotation Xrotation Yrotation
                JOINT RightToeBase
                {
                    OFFSET -0.000000 -5.791090 13.364000
                    CHANNELS 3 Zrotation Xrotation Yrotation
                    End Site
                    {
                        OFFSET -0.000000 0.000000 3.563756
                    }
                }
            }
        }
    }
}
MOTION
Frames:    5
Frame Time:    0.033333
5.163886    81.401978    110.316254    -0.102493    2.043181    3.324359    -0.570753    -1.537580    -1.587570    -1.248210    3.742428    -0.485845    1.979899    -2.354947    -4.267413    2.878665    -10.394737    -4.298394    2.114511    4.804327    -9.936087    -91.159790    29.719160    1.678049    12.514884    -8.458776    -1.874117    -4.323625    -38.473980    6.812107    -2.265120    4.245847    2.485687    -0.000000    0.000000    2.937417    -0.000000    0.000000    5.874834    -8.800201    0.000000    0.000000    -17.600403    0.000000    0.000000    -8.800201    0.000000    0.000000    -21.308107    -2.863510    4.202105    -42.959949    0.000000    0.000000    -21.479973    0.000000    0.000000    -33.633347    -6.563280    7.700868    -68.319481    0.000000    0.000000    -34.159752    0.000000    0.000000    -46.212311    -11.059411    10.418944    -94.447510    0.000000    0.000000    -47.223755    0.000000    0.000000    -4.151156    0.344909    -0.844759    99.617348    53.224522    -12.529608    -11.139257    -27.698565    0.651081    13.562840    -45.796482    -3.419634    -0.050093    -2.033768    3.133129    0.000000    0.000000    0.000000    0.000000    0.000000    0.000000    8.974216    0.000000    -0.000000    17.948433    0.000000    -0.000000    8.974216    0.000000    -0.000000    20.106936    -1.605156    -2.619434    40.330471    0.000000    -0.000000    20.165234    0.000000    -0.000000    31.171869    -3.684499    -4.883054    62.712498    0.000000    -0.000000    31.356247    0.000000    -0.000000    42.517628    -6.238472    -6.758929    85.772766    0.000000    -0.000000    42.886383    0.000000    -0.000000    -0.923636    2.862062    -6.682104    1.486815    -7.547193    25.415337    -0.467193    3.488736    -19.435114    0.266939    -3.188578    -1.115735    -0.949301    1.809872    7.813014    -0.590515    -3.479977    -12.479785    2.063961    -1.200310    2.840759    -0.252770    -1.694231    0.228334    
5.213095    81.399490    110.319901    -0.118331    1.905027    3.204163    -0.398787    -1.480130    -1.405327    -1.339741    3.855940    -0.421619    1.993528    -2.313160    -4.310244    2.924112    -10.407148    -4.341788    2.003350    4.589649    -10.190125    -91.594078    30.391861    1.193260    12.901849    -6.886611    -1.528324    -2.662718    -39.214306    7.582469    -2.386748    4.766087    3.025142    -0.000000    0.000000    3.560755    -0.000000    0.000000    7.121511    -5.430222    0.000000    0.000000    -10.860443    0.000000    0.000000    -5.430222    0.000000    0.000000    -18.825531    -2.829894    4.406163    -38.020126    0.000000    0.000000    -19.010065    0.000000    0.000000    -32.029678    -6.597219    8.054283    -65.179794    0.000000    0.000000    -32.589901    0.000000    0.000000    -45.511936    -11.237566    10.836788    -93.162483    0.000000    0.000000    -46.581238    0.000000    0.000000    -4.104614    0.208082    -0.565699    100.092392    53.733711    -12.943354    -11.266965    -27.811432    0.655772    13.204770    -46.160458    -3.741139    -0.230358    -2.148568    3.183877    0.000000    0.000000    0.000000    0.000000    0.000000    0.000000    8.864791    0.000000    -0.000000    17.729582    0.000000    -0.000000    8.864791    0.000000    -0.000000    19.933495    -1.606495    -2.646170    39.984825    0.000000    -0.000000    19.992413    0.000000    -0.000000    30.933386    -3.689724    -4.938148    62.240070    0.000000    -0.000000    31.120035    0.000000    -0.000000    42.210636    -6.251083    -6.844997    85.169708    0.000000    -0.000000    42.584854    0.000000    -0.000000    -0.954347    3.021038    -6.757065    1.534538    -7.547162    25.532312    -0.450876    3.464528    -19.355408    0.265226    -3.188314    -1.111185    -0.951900    1.937338    7.843106    -0.612280    -3.481481    -12.517199    2.116007    -1.178673    2.964702    -0.254347    -1.693929    0.230880    
5.252933    81.392479    110.329178    -0.120739    1.759825    3.091888    -0.199034    -1.415304    -1.211934    -1.499862    3.960471    -0.351404    2.000602    -2.272315    -4.361765    2.992432    -10.431431    -4.395449    1.966117    4.370306    -10.494329    -91.639130    31.066595    0.913292    13.196957    -5.901939    -0.947570    -2.127939    -39.640381    7.794724    -2.463981    4.931361    3.149996    -0.000000    0.000000    3.730755    -0.000000    0.000000    7.461511    -4.538118    0.000000    0.000000    -9.076237    0.000000    0.000000    -4.538118    0.000000    0.000000    -18.210968    -2.826581    4.456700    -36.798634    0.000000    0.000000    -18.399313    0.000000    0.000000    -31.690533    -6.620053    8.136654    -64.521011    0.000000    0.000000    -32.260506    0.000000    0.000000    -45.457199    -11.307595    10.922204    -93.083488    0.000000    0.000000    -46.541740    0.000000    0.000000    -4.096340    0.105242    -0.282438    100.602036    54.144272    -13.352881    -11.360070    -28.044525    0.631486    12.886874    -46.456661    -3.955451    -0.354510    -2.242836    3.241667    0.000000    0.000000    0.000000    0.000000    0.000000    0.000000    8.848021    0.000000    -0.000000    17.696041    0.000000    -0.000000    8.848021    0.000000    -0.000000    19.849974    -1.612017    -2.671021    39.819168    0.000000    -0.000000    19.909578    0.000000    -0.000000    30.782026    -3.702704    -4.988832    61.942295    0.000000    -0.000000    30.971144    0.000000    -0.000000    41.987968    -6.274399    -6.923547    84.735809    0.000000    -0.000000    42.367905    0.000000    -0.000000    -0.986535    3.190093    -6.783879    1.565815    -7.549935    25.647728    -0.433014    3.438042    -19.330288    0.264072    -3.188975    -1.108247    -0.965183    2.077201    7.829747    -0.623849    -3.483373    -12.545381    2.162683    -1.164942    3.116382    -0.256071    -1.694932    0.233526    
5.284794    81.389488    110.335197    -0.092432    1.627718    3.041777    0.014131    -1.337533    -1.061484    -1.714466    4.037002    -0.293427    1.955498    -2.224355    -4.423275    3.073155    -10.523347    -4.463834    2.057376    4.233432    -10.805655    -91.259567    31.585964    1.045477    13.081515    -5.867691    -1.058888    -2.594795    -38.869446    7.697546    -2.485623    4.696282    2.807275    -0.000000    0.000000    3.369910    -0.000000    0.000000    6.739819    -6.481500    0.000000    0.000000    -12.962999    0.000000    0.000000    -6.481500    0.000000    0.000000    -19.546528    -2.889284    4.432024    -39.467575    0.000000    0.000000    -19.733788    0.000000    0.000000    -32.415363    -6.699088    8.114329    -65.972145    0.000000    0.000000    -32.986069    0.000000    0.000000    -45.546265    -11.373346    10.950090    -93.279900    0.000000    0.000000    -46.639950    0.000000    0.000000    -4.137466    0.057846    -0.057771    101.078362    54.495979    -13.759198    -11.389046    -28.373684    0.690917    12.669018    -46.630917    -4.148779    -0.408479    -2.303356    3.296441    0.000000    0.000000    0.000000    0.000000    0.000000    0.000000    8.906709    0.000000    -0.000000    17.813417    0.000000    -0.000000    8.906709    0.000000    -0.000000    19.833937    -1.604031    -2.667526    39.786125    0.000000    -0.000000    19.893063    0.000000    -0.000000    30.691536    -3.683199    -4.986111    61.758850    0.000000    -0.000000    30.879421    0.000000    -0.000000    41.820583    -6.240860    -6.927241    84.397385    0.000000    -0.000000    42.198689    0.000000    -0.000000    -1.028926    3.297036    -6.736219    1.543521    -7.473429    25.583479    -0.424110    3.376374    -19.268431    0.263408    -3.187867    -1.106332    -1.009753    2.214235    7.735702    -0.621364    -3.492593    -12.505065    2.207685    -1.155963    3.217519    -0.258403    -1.700225    0.236706    
5.314257    81.398232    110.334183    -0.039113    1.535452    3.035684    0.172486    -1.289435    -0.984937    -1.874107    4.131467    -0.261539    1.878832    -2.206179    -4.467087    3.105792    -10.673050    -4.514593    2.212207    4.230319    -10.974289    -90.748741    31.630543    1.417093    12.945370    -6.172877    -1.888413    -4.209984    -37.524124    6.896120    -2.434951    4.403741    2.481029    -0.000000    0.000000    3.023095    -0.000000    0.000000    6.046189    -7.796842    0.000000    0.000000    -15.593683    0.000000    0.000000    -7.796842    0.000000    0.000000    -20.571543    -2.995353    4.467656    -41.529572    0.000000    0.000000    -20.764786    0.000000    0.000000    -33.142570    -6.897535    8.181803    -67.465462    0.000000    0.000000    -33.732731    0.000000    0.000000    -45.961723    -11.656686    11.054935    -94.187294    0.000000    0.000000    -47.093647    0.000000    0.000000    -4.233788    0.072038    0.101492    101.448074    54.753326    -14.131080    -11.409952    -28.863935    0.949929    12.649479    -46.608570    -4.286385    -0.440221    -2.320116    3.299883    0.000000    0.000000    0.000000    0.000000    0.000000    0.000000    9.002676    0.000000    -0.000000    18.005356    0.000000    -0.000000    9.002676    0.000000    -0.000000    19.841303    -1.587664    -2.649131    39.798573    0.000000    -0.000000    19.899290    0.000000    -0.000000    30.611341    -3.643746    -4.955850    61.591789    0.000000    -0.000000    30.795906    0.000000    -0.000000    41.650578    -6.172762    -6.893330    84.045418    0.000000    -0.000000    42.022709    0.000000    -0.000000    -1.088469    3.336030    -6.622581    1.491981    -7.362223    25.453487    -0.417736    3.308084    -19.253683    0.263661    -3.187283    -1.106907    -1.076545    2.307091    7.614554    -0.621931    -3.488257    -12.470819    2.259280    -1.152884    3.308451    -0.258679    -1.710242    0.236123    
